<?xml version="1.0" encoding="UTF-8"?> <svg xmlns="http://www.w3.org/2000/svg" width="631" height="135" viewBox="0 0 631 135" fill="none"><g clip-path="url(#clip0_403_4209)"><path d="M137.735 122.595C130.028 122.595 123.271 120.783 117.464 117.16C111.657 113.431 107.169 108.369 104.001 101.975C100.834 95.5822 99.2502 88.336 99.2502 80.2382C99.2502 72.1395 100.834 64.9469 104.001 58.66C107.169 52.2665 111.657 47.2583 117.464 43.6354C123.376 40.0124 130.187 38.2009 137.894 38.2009C144.44 38.2009 150.142 39.5329 154.998 42.1968C159.961 44.8608 163.762 48.5903 166.402 53.3854V5.59428H179.705V120.677H167.669L166.56 107.41C164.871 110.074 162.707 112.578 160.067 114.922C157.428 117.16 154.26 119.025 150.564 120.517C146.869 121.902 142.593 122.595 137.735 122.595ZM139.32 110.926C144.599 110.926 149.244 109.648 153.257 107.091C157.269 104.533 160.383 101.016 162.601 96.5411C164.818 91.9591 165.927 86.5781 165.927 80.398C165.927 74.3237 164.818 68.9961 162.601 64.4141C160.383 59.8321 157.269 56.2625 153.257 53.705C149.244 51.1477 144.599 49.869 139.32 49.869C134.146 49.869 129.553 51.1477 125.541 53.705C121.529 56.2625 118.414 59.8321 116.197 64.4141C113.979 68.9961 112.871 74.3237 112.871 80.398C112.871 86.5781 113.979 91.9591 116.197 96.5411C118.414 101.016 121.529 104.533 125.541 107.091C129.553 109.648 134.146 110.926 139.32 110.926Z" fill="black"></path><path d="M193.952 120.677V5.59428H207.256V120.677H193.952Z" fill="black"></path><path d="M256.298 122.595C248.802 122.595 242.15 120.837 236.342 117.32C230.641 113.804 226.154 108.902 222.881 102.615C219.607 96.2214 217.971 88.8161 217.971 80.398C217.971 71.8731 219.555 64.4674 222.722 58.1805C225.995 51.8936 230.535 46.992 236.342 43.4755C242.255 39.9591 249.012 38.2009 256.615 38.2009C264.428 38.2009 271.027 39.9591 276.412 43.4755C281.902 46.992 286.073 51.6272 288.923 57.3813C291.88 63.0289 293.358 69.2624 293.358 76.0824C293.358 77.1478 293.358 78.2664 293.358 79.4384C293.358 80.6111 293.306 81.9428 293.2 83.4344H227.949V73.0452H280.371C280.055 65.6928 277.626 59.9387 273.086 55.7829C268.652 51.6272 263.055 49.5493 256.298 49.5493C251.758 49.5493 247.534 50.6149 243.627 52.746C239.827 54.7707 236.765 57.8075 234.442 61.8567C232.119 65.7994 230.958 70.7543 230.958 76.7216V81.197C230.958 87.8033 232.119 93.3448 234.442 97.8203C236.871 102.296 239.985 105.652 243.786 107.89C247.693 110.127 251.863 111.246 256.298 111.246C261.894 111.246 266.487 110.021 270.077 107.57C273.772 105.012 276.412 101.602 277.996 97.3401H291.141C289.874 102.135 287.656 106.451 284.489 110.287C281.322 114.123 277.362 117.16 272.611 119.398C267.965 121.529 262.527 122.595 256.298 122.595Z" fill="black"></path><path d="M303.393 120.677V40.1189H315.43L316.379 55.4633C318.175 51.8403 320.444 48.7501 323.19 46.1928C326.041 43.6354 329.42 41.6641 333.326 40.2788C337.338 38.8936 341.878 38.2009 346.946 38.2009V52.2665H342.037C338.658 52.2665 335.438 52.746 332.375 53.705C329.314 54.5575 326.568 55.996 324.14 58.0207C321.817 60.0452 319.969 62.8157 318.597 66.3321C317.33 69.742 316.696 74.0041 316.696 79.1188V120.677H303.393Z" fill="black"></path><path d="M350.054 32.6067L347.995 0H361.141L359.24 32.6067H350.054Z" fill="black"></path><path d="M385.003 122.595C378.352 122.595 372.545 121.476 367.582 119.238C362.726 117 358.819 113.91 355.862 109.967C353.011 105.918 351.269 101.176 350.636 95.742H364.256C364.785 98.5128 365.893 101.07 367.582 103.414C369.272 105.758 371.542 107.677 374.392 109.168C377.349 110.553 380.938 111.246 385.162 111.246C388.858 111.246 391.92 110.713 394.348 109.648C396.777 108.476 398.571 106.931 399.733 105.012C401 103.095 401.633 101.016 401.633 98.7791C401.633 95.4756 400.841 92.9712 399.258 91.2666C397.779 89.5619 395.562 88.2294 392.606 87.2706C389.649 86.2052 386.06 85.2996 381.836 84.5538C378.352 83.9138 374.92 83.0615 371.542 81.9961C368.163 80.9307 365.154 79.5456 362.514 77.8403C359.875 76.0291 357.763 73.8443 356.18 71.2871C354.701 68.7297 353.962 65.5862 353.962 61.8567C353.962 57.2747 355.123 53.2255 357.446 49.7091C359.769 46.0862 363.095 43.2624 367.424 41.2378C371.858 39.2132 376.979 38.2009 382.787 38.2009C391.339 38.2009 398.254 40.2788 403.534 44.4346C408.813 48.5903 411.928 54.6108 412.878 62.4961H399.733C399.205 58.4469 397.463 55.3034 394.506 53.0657C391.655 50.7215 387.696 49.5493 382.628 49.5493C377.665 49.5493 373.865 50.5616 371.225 52.5862C368.691 54.6108 367.424 57.2747 367.424 60.578C367.424 62.7092 368.111 64.6272 369.483 66.3321C370.961 67.9305 373.072 69.3158 375.818 70.4879C378.669 71.66 382.153 72.6191 386.27 73.3648C391.55 74.3237 396.354 75.6029 400.683 77.201C405.012 78.7991 408.496 81.197 411.136 84.394C413.881 87.4836 415.254 91.9058 415.254 97.6605C415.254 102.669 413.987 107.037 411.453 110.766C409.024 114.496 405.54 117.427 401 119.557C396.46 121.582 391.128 122.595 385.003 122.595Z" fill="black"></path><path d="M619.149 121.811C616.588 121.811 614.352 121.407 612.441 120.598C610.568 119.751 609.077 118.596 607.969 117.133C606.899 115.632 606.269 113.918 606.077 111.993H612.958C613.148 112.802 613.492 113.553 613.989 114.246C614.486 114.9 615.155 115.42 615.996 115.804C616.875 116.19 617.907 116.382 619.091 116.382C620.238 116.382 621.175 116.228 621.901 115.92C622.628 115.574 623.162 115.131 623.506 114.592C623.85 114.053 624.022 113.475 624.022 112.859C624.022 111.935 623.774 111.223 623.277 110.723C622.78 110.222 622.054 109.837 621.098 109.567C620.181 109.259 619.073 108.971 617.773 108.701C616.397 108.432 615.059 108.105 613.76 107.72C612.498 107.297 611.352 106.776 610.32 106.16C609.326 105.544 608.523 104.755 607.912 103.792C607.339 102.831 607.052 101.656 607.052 100.27C607.052 98.5763 607.492 97.0555 608.37 95.7077C609.288 94.3599 610.587 93.3018 612.269 92.5312C613.989 91.7226 616.034 91.3191 618.404 91.3191C621.768 91.3191 624.443 92.1079 626.43 93.6863C628.456 95.2268 629.641 97.4014 629.985 100.212H623.449C623.258 99.1345 622.722 98.3063 621.844 97.729C620.965 97.1131 619.799 96.8052 618.347 96.8052C616.856 96.8052 615.709 97.0934 614.906 97.6714C614.142 98.2099 613.76 98.9418 613.76 99.8657C613.76 100.443 613.989 100.982 614.448 101.483C614.945 101.945 615.652 102.349 616.569 102.696C617.486 103.004 618.614 103.311 619.951 103.619C622.092 104.043 623.984 104.543 625.627 105.121C627.271 105.698 628.571 106.546 629.527 107.662C630.482 108.779 630.959 110.357 630.959 112.397C630.998 114.246 630.52 115.882 629.527 117.306C628.571 118.731 627.214 119.847 625.456 120.656C623.698 121.426 621.595 121.811 619.149 121.811Z" fill="#634BF5"></path><path d="M598.916 121.118C596.967 121.118 595.266 120.81 593.814 120.194C592.4 119.578 591.291 118.558 590.488 117.133C589.686 115.708 589.284 113.783 589.284 111.358V97.8443H584.354V92.0116H589.284L590.087 84.3312H596.165V92.0116H604.019V97.8443H596.165V111.358C596.165 112.821 596.47 113.841 597.082 114.419C597.732 114.958 598.802 115.227 600.292 115.227H603.847V121.118H598.916Z" fill="#634BF5"></path><path d="M554.514 121.118V79.5376H561.394V96.5162C562.35 94.9378 563.649 93.6864 565.293 92.7625C566.936 91.8 568.79 91.3184 570.854 91.3184C573.224 91.3184 575.23 91.819 576.874 92.8202C578.518 93.7827 579.759 95.2261 580.6 97.1511C581.48 99.0382 581.919 101.405 581.919 104.255V121.118H575.097V104.89C575.097 102.388 574.561 100.482 573.491 99.1725C572.459 97.8633 570.873 97.2095 568.732 97.2095C567.357 97.2095 566.114 97.5554 565.006 98.2486C563.897 98.9032 563.019 99.8657 562.369 101.136C561.719 102.368 561.394 103.889 561.394 105.698V121.118H554.514Z" fill="#634BF5"></path><path d="M535.998 134.515C533.284 134.515 530.896 134.169 528.832 133.476C526.806 132.822 525.22 131.802 524.073 130.415C522.964 129.068 522.41 127.374 522.41 125.333C522.41 124.14 522.697 122.966 523.27 121.811C523.882 120.694 524.78 119.654 525.965 118.692C527.188 117.692 528.736 116.825 530.609 116.093L533.647 119.443C531.813 120.097 530.533 120.887 529.806 121.811C529.08 122.735 528.717 123.678 528.717 124.641C528.717 125.641 529.023 126.469 529.634 127.124C530.284 127.817 531.144 128.336 532.214 128.683C533.323 129.029 534.565 129.203 535.941 129.203C537.279 129.203 538.445 129.01 539.438 128.625C540.432 128.278 541.196 127.778 541.731 127.124C542.304 126.469 542.591 125.68 542.591 124.756C542.591 123.601 542.19 122.658 541.387 121.926C540.585 121.233 538.999 120.81 536.629 120.656C534.603 120.502 532.826 120.29 531.297 120.02C529.768 119.712 528.449 119.366 527.341 118.981C526.271 118.596 525.354 118.172 524.589 117.711C523.824 117.21 523.194 116.709 522.697 116.209V114.881L528.717 108.528L533.82 110.203L527.055 116.844L528.832 113.495C529.214 113.764 529.596 114.014 529.979 114.246C530.399 114.476 530.915 114.688 531.526 114.881C532.176 115.035 533.017 115.189 534.049 115.343C535.081 115.496 536.419 115.65 538.062 115.804C540.623 115.997 542.706 116.459 544.311 117.191C545.917 117.922 547.102 118.904 547.866 120.136C548.63 121.368 549.013 122.85 549.013 124.582C549.013 126.277 548.535 127.874 547.579 129.376C546.662 130.878 545.248 132.11 543.337 133.072C541.426 134.035 538.979 134.515 535.998 134.515ZM535.998 112.397C533.59 112.397 531.507 111.935 529.749 111.012C528.029 110.049 526.711 108.779 525.793 107.2C524.875 105.583 524.417 103.812 524.417 101.887C524.417 99.9233 524.875 98.1523 525.793 96.5739C526.711 94.9955 528.029 93.725 529.749 92.7625C531.507 91.8 533.59 91.3191 535.998 91.3191C538.406 91.3191 540.47 91.8 542.19 92.7625C543.91 93.725 545.229 94.9955 546.146 96.5739C547.063 98.1523 547.522 99.9233 547.522 101.887C547.522 103.812 547.063 105.583 546.146 107.2C545.229 108.779 543.91 110.049 542.19 111.012C540.47 111.935 538.406 112.397 535.998 112.397ZM535.998 107.027C537.642 107.027 538.96 106.584 539.954 105.698C540.948 104.813 541.445 103.543 541.445 101.887C541.445 100.231 540.948 98.9805 539.954 98.1333C538.96 97.2474 537.642 96.8052 535.998 96.8052C534.355 96.8052 533.017 97.2474 531.985 98.1333C530.953 98.9805 530.437 100.231 530.437 101.887C530.437 103.543 530.953 104.813 531.985 105.698C533.017 106.584 534.355 107.027 535.998 107.027ZM540.757 97.0934L539.438 92.0116H551.306V96.3433L540.757 97.0934Z" fill="#634BF5"></path><path d="M511.88 121.118V92.0116H518.759V121.118H511.88ZM515.32 87.3917C514.058 87.3917 513.007 87.0071 512.166 86.2373C511.363 85.4287 510.962 84.4465 510.962 83.2914C510.962 82.0983 511.363 81.1357 512.166 80.4038C513.007 79.634 514.058 79.2494 515.32 79.2494C516.581 79.2494 517.613 79.634 518.415 80.4038C519.256 81.1357 519.677 82.0983 519.677 83.2914C519.677 84.4465 519.256 85.4287 518.415 86.2373C517.613 87.0071 516.581 87.3917 515.32 87.3917Z" fill="#634BF5"></path><path d="M495.974 121.811C493.413 121.811 491.177 121.407 489.265 120.598C487.393 119.751 485.903 118.596 484.794 117.133C483.723 115.632 483.093 113.918 482.902 111.993H489.782C489.973 112.802 490.317 113.553 490.814 114.246C491.311 114.9 491.979 115.42 492.82 115.804C493.7 116.19 494.731 116.382 495.917 116.382C497.063 116.382 497.999 116.228 498.725 115.92C499.452 115.574 499.987 115.131 500.331 114.592C500.675 114.053 500.847 113.475 500.847 112.859C500.847 111.935 500.599 111.223 500.102 110.723C499.605 110.222 498.878 109.837 497.923 109.567C497.006 109.259 495.897 108.971 494.597 108.701C493.222 108.432 491.884 108.105 490.585 107.72C489.323 107.297 488.177 106.776 487.144 106.16C486.151 105.544 485.348 104.755 484.736 103.792C484.163 102.831 483.876 101.656 483.876 100.27C483.876 98.5763 484.316 97.0555 485.195 95.7077C486.113 94.3599 487.412 93.3018 489.094 92.5312C490.814 91.7226 492.859 91.3191 495.228 91.3191C498.592 91.3191 501.267 92.1079 503.255 93.6863C505.281 95.2268 506.465 97.4014 506.81 100.212H500.274C500.082 99.1345 499.548 98.3063 498.668 97.729C497.789 97.1131 496.624 96.8052 495.171 96.8052C493.68 96.8052 492.533 97.0934 491.731 97.6714C490.966 98.2099 490.585 98.9418 490.585 99.8657C490.585 100.443 490.814 100.982 491.272 101.483C491.769 101.945 492.476 102.349 493.393 102.696C494.311 103.004 495.439 103.311 496.777 103.619C498.917 104.043 500.809 104.543 502.452 105.121C504.096 105.698 505.395 106.546 506.351 107.662C507.307 108.779 507.784 110.357 507.784 112.397C507.822 114.246 507.345 115.882 506.351 117.306C505.395 118.731 504.039 119.847 502.28 120.656C500.522 121.426 498.42 121.811 495.974 121.811Z" fill="#634BF5"></path><path d="M452.715 121.118V92.0116H458.793L459.309 96.8629C460.188 95.1684 461.449 93.8213 463.092 92.8201C464.736 91.819 466.686 91.3191 468.94 91.3191C471.272 91.3191 473.259 91.819 474.903 92.8201C476.546 93.7827 477.808 95.2071 478.687 97.0934C479.604 98.9805 480.063 101.329 480.063 104.139V121.118H473.183V104.775C473.183 102.349 472.648 100.482 471.578 99.1724C470.508 97.864 468.921 97.2095 466.819 97.2095C465.443 97.2095 464.201 97.5364 463.092 98.191C462.022 98.8455 461.162 99.808 460.513 101.078C459.901 102.31 459.595 103.812 459.595 105.583V121.118H452.715Z" fill="#634BF5"></path><path d="M440.752 121.118V92.0116H447.632V121.118H440.752ZM444.191 87.3917C442.93 87.3917 441.879 87.0071 441.039 86.2373C440.236 85.4287 439.834 84.4465 439.834 83.2914C439.834 82.0983 440.236 81.1357 441.039 80.4038C441.879 79.634 442.93 79.2494 444.191 79.2494C445.453 79.2494 446.485 79.634 447.288 80.4038C448.129 81.1357 448.549 82.0983 448.549 83.2914C448.549 84.4465 448.129 85.4287 447.288 86.2373C446.485 87.0071 445.453 87.3917 444.191 87.3917Z" fill="#634BF5"></path><path d="M589.711 70.3895C586.959 70.3895 584.475 69.7543 582.258 68.4837C580.079 67.1748 578.359 65.3845 577.098 63.113C575.875 60.8031 575.263 58.1658 575.263 55.2013C575.263 52.1598 575.894 49.5033 577.155 47.2318C578.416 44.9218 580.136 43.1316 582.315 41.8611C584.532 40.552 587.016 39.8975 589.768 39.8975C592.52 39.8975 594.985 40.552 597.164 41.8611C599.381 43.1316 601.101 44.9025 602.324 47.174C603.585 49.4455 604.216 52.102 604.216 55.1436C604.216 58.1851 603.585 60.8415 602.324 63.113C601.063 65.3845 599.324 67.1748 597.106 68.4837C594.928 69.7543 592.463 70.3895 589.711 70.3895ZM589.711 64.4413C591.087 64.4413 592.329 64.0948 593.438 63.4018C594.584 62.7088 595.502 61.6693 596.189 60.2833C596.877 58.8973 597.222 57.184 597.222 55.1436C597.222 53.103 596.877 51.409 596.189 50.0616C595.539 48.6755 594.642 47.636 593.495 46.9431C592.387 46.2501 591.144 45.9036 589.768 45.9036C588.43 45.9036 587.188 46.2501 586.042 46.9431C584.895 47.636 583.978 48.6755 583.29 50.0616C582.601 51.409 582.258 53.103 582.258 55.1436C582.258 57.184 582.601 58.8973 583.29 60.2833C583.978 61.6693 584.876 62.7088 585.985 63.4018C587.131 64.0948 588.373 64.4413 589.711 64.4413Z" fill="#634BF5"></path><path d="M568.257 69.6966C566.308 69.6966 564.607 69.3885 563.154 68.7725C561.74 68.1565 560.631 67.1363 559.829 65.7118C559.026 64.2873 558.625 62.3623 558.625 59.9368V46.4233H553.695V40.5906H558.625L559.427 32.9098H565.505V40.5906H573.359V46.4233H565.505V59.9368C565.505 61.3998 565.811 62.4201 566.422 62.9976C567.072 63.5366 568.142 63.806 569.633 63.806H573.188V69.6966H568.257Z" fill="#634BF5"></path><path d="M522.623 82.4018V40.5906H528.758L529.502 44.8063C530.115 43.9593 530.841 43.1701 531.682 42.4385C532.56 41.6686 533.612 41.0526 534.834 40.5906C536.096 40.1286 537.529 39.8975 539.135 39.8975C541.849 39.8975 544.237 40.5713 546.301 41.9188C548.404 43.2663 550.047 45.095 551.232 47.4051C552.417 49.6766 553.009 52.2753 553.009 55.2013C553.009 58.1273 552.397 60.7453 551.175 63.0553C549.989 65.3268 548.346 67.117 546.244 68.426C544.18 69.735 541.81 70.3895 539.135 70.3895C536.956 70.3895 535.045 69.9853 533.402 69.1768C531.796 68.3298 530.496 67.1363 529.502 65.5963V82.4018H522.623ZM537.701 64.3835C539.307 64.3835 540.74 63.9985 542.002 63.2285C543.263 62.4585 544.237 61.3806 544.925 59.9945C545.651 58.6085 546.014 57.0108 546.014 55.2013C546.014 53.3533 545.651 51.7363 544.925 50.3503C544.237 48.9643 543.263 47.8863 542.002 47.1163C540.74 46.3463 539.307 45.9613 537.701 45.9613C536.058 45.9613 534.606 46.3463 533.344 47.1163C532.121 47.8863 531.146 48.9643 530.42 50.3503C529.732 51.7363 529.388 53.3341 529.388 55.1436C529.388 56.9915 529.732 58.6085 530.42 59.9945C531.146 61.342 532.121 62.4201 533.344 63.2285C534.606 63.9985 536.058 64.3835 537.701 64.3835Z" fill="#634BF5"></path><path d="M495.17 82.4018L502.222 66.4625H500.502L488.978 40.5905H496.488L505.088 60.341L513.229 40.5905H520.511L502.451 82.4018H495.17Z" fill="#634BF5"></path><path d="M471.752 69.6966V40.5906H477.886L478.517 46.0191C479.205 44.7486 480.065 43.6705 481.097 42.7851C482.129 41.8611 483.333 41.1488 484.709 40.6483C486.123 40.1478 487.671 39.8975 489.353 39.8975V47.2318H486.944C485.798 47.2318 484.709 47.3858 483.677 47.6938C482.645 47.9633 481.747 48.4253 480.982 49.0798C480.256 49.6958 479.683 50.562 479.262 51.6786C478.841 52.7565 478.631 54.1233 478.631 55.7788V69.6966H471.752Z" fill="#634BF5"></path><path d="M454.167 70.3895C451.339 70.3895 448.798 69.7543 446.542 68.4837C444.325 67.1748 442.586 65.3845 441.325 63.113C440.102 60.8031 439.49 58.1851 439.49 55.2591C439.49 52.2176 440.102 49.5611 441.325 47.2896C442.586 44.9796 444.325 43.1701 446.542 41.8611C448.798 40.552 451.358 39.8975 454.225 39.8975C457.818 39.8975 460.837 40.8601 463.284 42.7851C465.729 44.6716 467.296 47.2703 467.985 50.5813H460.76C460.379 49.1183 459.576 47.9633 458.353 47.1163C457.168 46.2693 455.754 45.8458 454.11 45.8458C452.696 45.8458 451.396 46.2116 450.212 46.9431C449.065 47.6746 448.148 48.7333 447.459 50.1193C446.81 51.5053 446.485 53.1801 446.485 55.1436C446.485 56.6451 446.676 57.9733 447.058 59.1283C447.441 60.2833 447.975 61.265 448.664 62.0735C449.39 62.8435 450.212 63.4403 451.129 63.8638C452.046 64.2873 453.04 64.4991 454.11 64.4991C455.218 64.4991 456.212 64.3258 457.092 63.9793C458.009 63.5943 458.773 63.036 459.385 62.3045C460.035 61.5731 460.493 60.7068 460.76 59.7058H467.985C467.296 62.9398 465.729 65.5386 463.284 67.502C460.837 69.427 457.799 70.3895 454.167 70.3895Z" fill="#634BF5"></path><path fill-rule="evenodd" clip-rule="evenodd" d="M66.495 40.964V39.3625C66.2785 35.3403 65.5059 31.1456 64.2347 28.3229L64.2234 28.298L64.2129 28.2729C62.8157 24.963 60.669 22.4684 57.7761 20.6931C54.9533 18.9609 51.0741 17.9881 45.9309 17.9881C39.9341 17.9881 35.1885 19.315 31.5146 21.8013C28.0529 24.2135 25.1423 29.4467 24.6296 34.8553H12.3157V32.5375C13.1011 26.9767 15.0903 22.2522 18.3989 18.4954L18.4013 18.4926L18.4038 18.4898C21.7177 14.7499 25.7899 11.9579 30.5908 10.1366C35.3425 8.23603 40.4655 7.2973 45.9309 7.2973C53.5037 7.2973 59.8802 8.73049 64.8436 11.8187C69.6949 14.7394 73.2336 18.7579 75.4251 23.8114C77.6825 28.6777 79.4668 35.2416 78.838 48.8919L66.495 40.964Z" fill="black"></path><path fill-rule="evenodd" clip-rule="evenodd" d="M46.0029 46.0451C27.4376 46.0451 12.3874 61.2049 12.3874 79.9054C12.3874 98.6062 27.4376 113.766 46.0029 113.766C64.5682 113.766 79.6183 98.6062 79.6183 79.9054C79.6183 61.2049 64.5682 46.0451 46.0029 46.0451ZM0 79.9054C0 54.3137 20.5962 33.5676 46.0029 33.5676C71.4096 33.5676 92.0057 54.3137 92.0057 79.9054C92.0057 105.497 71.4096 126.243 46.0029 126.243C20.5962 126.243 0 105.497 0 79.9054Z" fill="black"></path><path d="M45.2785 88.2973C49.8797 88.2973 53.6097 84.3765 53.6097 79.5405C53.6097 74.7046 49.8797 70.7838 45.2785 70.7838C40.6773 70.7838 36.9473 74.7046 36.9473 79.5405C36.9473 84.3765 40.6773 88.2973 45.2785 88.2973Z" fill="#634BF5"></path></g><defs><clipPath id="clip0_403_4209"><rect width="631" height="135" fill="white"></rect></clipPath></defs></svg> 