<?xml version="1.0" encoding="UTF-8"?> <svg xmlns="http://www.w3.org/2000/svg" width="300" height="450" viewBox="0 0 300 450" fill="none"><mask id="mask0_114_862" style="mask-type:alpha" maskUnits="userSpaceOnUse" x="0" y="0" width="300" height="450"><rect width="300" height="450" rx="20" fill="#634BF5"></rect></mask><g mask="url(#mask0_114_862)"><mask id="mask1_114_862" style="mask-type:alpha" maskUnits="userSpaceOnUse" x="0" y="-122" width="300" height="837"><rect x="300" y="-122" width="836.539" height="300" rx="30" transform="rotate(90 300 -122)" fill="#634BF5"></rect></mask><g mask="url(#mask1_114_862)"><circle cx="150.165" cy="490.075" r="249.575" transform="rotate(90 150.165 490.075)" stroke="url(#paint0_linear_114_862)" stroke-opacity="0.7"></circle><circle cx="150" cy="490.24" r="171.135" transform="rotate(90 150 490.24)" stroke="url(#paint1_linear_114_862)" stroke-opacity="0.7"></circle><circle cx="-77.7197" cy="-44.5689" r="249.575" transform="rotate(-150 -77.7197 -44.5689)" stroke="url(#paint2_linear_114_862)" stroke-opacity="0.7"></circle><circle cx="-77.7801" cy="-44.7944" r="171.135" transform="rotate(-150 -77.7801 -44.7944)" stroke="url(#paint3_linear_114_862)" stroke-opacity="0.7"></circle></g></g><defs><linearGradient id="paint0_linear_114_862" x1="150.165" y1="240" x2="150.165" y2="740.151" gradientUnits="userSpaceOnUse"><stop stop-color="white"></stop><stop offset="1" stop-color="white" stop-opacity="0"></stop></linearGradient><linearGradient id="paint1_linear_114_862" x1="150" y1="318.606" x2="150" y2="661.875" gradientUnits="userSpaceOnUse"><stop stop-color="white"></stop><stop offset="1" stop-color="white" stop-opacity="0"></stop></linearGradient><linearGradient id="paint2_linear_114_862" x1="-77.7197" y1="-294.644" x2="-77.7197" y2="205.507" gradientUnits="userSpaceOnUse"><stop stop-color="white"></stop><stop offset="1" stop-color="white" stop-opacity="0"></stop></linearGradient><linearGradient id="paint3_linear_114_862" x1="-77.7801" y1="-216.429" x2="-77.7801" y2="126.84" gradientUnits="userSpaceOnUse"><stop stop-color="white"></stop><stop offset="1" stop-color="white" stop-opacity="0"></stop></linearGradient></defs></svg> 