<?xml version="1.0" encoding="UTF-8"?> <svg xmlns="http://www.w3.org/2000/svg" viewBox="0 0 155.8115234375 20" fill="none"><path d="M17.128405717116138 10.123154581079728H20.607746950902694L23.179960486778846 12.776744680238382C24.194857821733525 11.43516751176883 24.800924696232723 9.74820813301282 24.800924696232723 7.9140018706492885C24.800924696232723 3.5439630643404447 21.365630181571767 0 17.128405717116138 0C12.891081373478816 0 9.455786858817858 3.5439630643404447 9.455786858817858 7.915350239602113C9.455786858817858 12.286737414863783 12.891081373478816 15.830650539613382 17.128405717116138 15.830650539613382C18.700004641019383 15.830650539613382 20.159988579383263 15.342041582782452 21.376092525853867 14.506552227939705L17.128405717116138 10.123154581079728Z" fill="white"></path><path d="M7.6725439489120095 15.829352110251403C3.4352445750701124 15.829352110251403 0 12.286737414863783 0 7.915350239602113C0 3.5439630643404447 3.4352445750701124 0 7.6725439489120095 0V15.829352110251403Z" fill="white"></path><path d="M43.94059749505459 4.050050877967248L44.2000336694962 4.273630426181891V1.1621342306440305L44.12112911596054 1.1152709185947516C42.88812061798878 0.3748765326397236 41.59019065191807 0 40.266541796562 0C37.842224358974356 0 35.83989646402995 0.9398830755458734 34.31099589029948 2.7941950171837444C33.07149524551783 4.3071149218437 32.442256400866384 6.052978048001803 32.442256400866384 7.986314398193359C32.442256400866384 10.14323029659956 33.19484603490585 12.010970994215745 34.67830158096705 13.53722476963141C36.16824927383814 15.050094734700522 37.990295245830836 15.817266729266827 40.09649748973358 15.817266729266827C41.49555512726612 15.817266729266827 42.84916773712941 15.44242016038161 44.11963092823518 14.703414095052084L44.2000336694962 14.656470879657453V11.495494537510016L43.939349005283454 11.721720884039465C43.59027126527444 12.0243548045623 43.25143114138872 12.28803584422576 42.93481413542919 12.503575118314304C42.62069410901192 12.717815963040866 42.31181773963341 12.889208638822115 42.01867234137119 13.015056407752404C41.504793951572516 13.261458348983373 40.86756477238582 13.385907809369993 40.124963056515426 13.385907809369993C38.68570404835237 13.385907809369993 37.452945248334835 12.85844585086138 36.46139467210036 11.819502602914664C35.46859560609475 10.779161046424278 34.96645302014473 9.48312878480569 34.96645302014473 7.96756208183093C34.96645302014473 6.433218092698318 35.46984409586588 5.1171350853553195 36.46264316187149 4.056742783140526C37.447701591296074 2.992355313658103 38.6767149220002 2.4527929922876606 40.11472544039213 2.4527929922876606C41.42289302258614 2.4527929922876606 42.710335674579326 2.989683545547877 43.94059749505459 4.050050877967248Z" fill="white"></path><path d="M51.05124613757011 3.621619128104968C50.573573951134314 3.6725075711763826 50.140098302596655 3.7862949289175183 49.7598083183093 3.9670512779822715C49.23943778170072 4.216075047732622 48.79946998635317 4.522679165727665 48.452889225886416 4.880146756998698C48.35176155442458 4.984595411251752 48.25837451954377 5.089019095709386 48.1699814437475 5.193442780167017V3.7595273082244094H45.68748438282502V15.635186981044672H48.1699814437475V10.356072832782454C48.1699814437475 9.619763505358573 48.310311694022936 8.919485592729618 48.587975819123095 8.274166199825972C48.860645985138724 7.640882248316056 49.25641724258814 7.11871388643705 49.766300465119194 6.723766632236579C50.14134679236779 6.431894693540916 50.56583331455329 6.257830249649439 51.04974794984475 6.188214460011018V3.621619128104968H51.05124613757011Z" fill="white"></path><path d="M57.676232259114585 11.960032611553487L54.55525752923428 3.759552278019832H51.8245607018104L56.33959911013872 15.018033517377804L54.20617978922526 19.975836338141026H56.90416618464543L63.57085186454578 3.759552278019832H60.85588600823818L57.676232259114585 11.960032611553487Z" fill="white"></path><path d="M73.13178653188852 4.411588545892178C72.29080382205278 3.8626525633200623 71.2992532458183 3.5841644349709534 70.18585006792118 3.5841644349709534C69.23974451935597 3.5841644349709534 68.4077509358724 3.775632826272035 67.71608760266427 4.1518277641100765C67.39297844989484 4.3272405769543765 67.095837884365 4.5360879458696415 66.82716288561699 4.774424643179087V3.759552278019832H64.3444161267403V19.975836338141026H66.82716288561699V14.588253398562701C67.09433969663962 14.825266696714744 67.38773479285608 15.035412494991988 67.70834696608324 15.217492243214144C68.4012587890625 15.611116098257213 69.23450086231722 15.811973132637219 70.18585006792118 15.811973132637219C71.2992532458183 15.811973132637219 72.29080382205278 15.533509974083534 73.13178653188852 14.98457399151142C73.96877407445663 14.438334746844953 74.62547969407302 13.687243300530849 75.08492392985026 12.75537053535657C75.53912450858874 11.83158798389924 75.7700951162485 10.80333180839343 75.7700951162485 9.698767938075921C75.7700951162485 8.57812351950621 75.53912450858874 7.54584720693735 75.08367544007912 6.628731590857873C74.62423120430189 5.703575700652293 73.9675255846855 4.957827790558644 73.13178653188852 4.411588545892178ZM73.28884654509716 9.698767938075921C73.28884654509716 10.370854951672676 73.15375995186048 11.00009379632412 72.88658314083784 11.570503802959736C72.62165361140326 12.135520333784054 72.25185094119342 12.573290787134415 71.75620050205329 12.910682662885616C71.27328465857873 13.238685895557893 70.67375987048027 13.404685095527844 69.97160922319462 13.404685095527844C69.27620042067308 13.404685095527844 68.70239452185997 13.24407937136919 68.22097686611077 12.911981092247597C67.73431555332282 12.577285954402043 67.37599898900741 12.140813930413662 67.12430345114684 11.578494137494992C66.86986123578977 11.006785701497396 66.74026799754607 10.374850118940305 66.74026799754607 9.698767938075921C66.74026799754607 9.009202067683294 66.86861274601863 8.3746196868114 67.1230549613757 7.809603155987079C67.37350200946514 7.253975268241686 67.73306706355169 6.821523381316356 68.21972837633965 6.485479874517979C68.69590237505008 6.158800041003105 69.28394105725411 5.992775871237731 69.97036073342349 5.992775871237731C70.671262890938 5.992775871237731 71.27203616880759 6.158800041003105 71.75495201228216 6.486803273675381C72.25060245142227 6.824195149426583 72.62040512163212 7.259343774257562 72.88508495311248 7.817643430113181C73.15375995186048 8.37996322303185 73.28884654509716 9.013197234950923 73.28884654509716 9.698767938075921Z" fill="white"></path><path d="M83.05728021240235 3.7595273082244094H80.61348633438502V0H78.13223776323368V3.7595273082244094H75.96485952054537V6.12394220659305H78.13223776323368V15.636585289588343H80.61348633438502V6.12394220659305H83.05728021240235V3.7595273082244094Z" fill="white"></path><path d="M92.03442106276293 4.410190237348507C91.1804540593074 3.8626026237292166 90.15394576948118 3.58543789453751 88.98461024983725 3.58543789453751C87.82950751358423 3.58543789453751 86.80674469307142 3.8626026237292166 85.94778373053136 4.410190237348507C85.08732458026593 4.956429482014974 84.41888315680089 5.7035257610614485 83.9581904312525 6.630030020219852C83.5027413627429 7.547145636299329 83.27177075508314 8.579396979072767 83.27177075508314 9.700066367437902C83.27177075508314 10.805928667117389 83.5027413627429 11.834184842623197 83.95694194148138 12.75666896471855C84.41763466702976 13.691138588616788 85.08732458026593 14.44223003493089 85.94778373053136 14.988569158779047C86.80824288079678 15.536106832807492 87.82950751358423 15.8132715619992 88.98461024983725 15.8132715619992C90.15394576948118 15.8132715619992 91.1804540593074 15.536106832807492 92.03442106276293 14.988569158779047C92.88713957644731 14.44223003493089 93.55283432241586 13.691138588616788 94.01227855819312 12.75796739408053C94.46647913693158 11.834184842623197 94.69744974459135 10.805928667117389 94.69744974459135 9.701364796799881C94.69744974459135 8.58074534802559 94.46647913693158 7.548494005252153 94.01078037046776 6.6313534193772545C93.55158583264473 5.7021773921086245 92.88564138872196 4.956429482014974 92.03442106276293 4.410190237348507ZM88.98461024983725 13.404685095527844C88.29794087571365 13.404685095527844 87.70890340169271 13.238586016376203 87.23372819479918 12.911981092247597C86.7458183922401 12.577285954402043 86.38775152587891 12.140813930413662 86.13730447778947 11.578494137494992C85.8828622624324 11.008084130859375 85.75301932623448 10.374850118940305 85.75301932623448 9.698668058894231C85.75301932623448 9.009202067683294 85.88161377266127 8.37322137826773 86.13730447778947 7.8095532163962345C86.38775152587891 7.253925328650841 86.7458183922401 6.8214734417255105 87.23372819479918 6.485429934927133C87.70890340169271 6.158750101412259 88.29794087571365 5.992725931646885 88.98461024983725 5.992725931646885C89.68276572985528 5.992725931646885 90.27579837114384 6.1574017324594355 90.74298324350211 6.484081565974309C91.22465059720552 6.8201250727726865 91.58022048402445 7.253925328650841 91.83191602188502 7.8095532163962345C92.0863582372421 8.37322137826773 92.21470298571465 9.009202067683294 92.21470298571465 9.698668058894231C92.21470298571465 10.373451810396634 92.08486004951673 11.006785701497396 91.83066753211388 11.578494137494992C91.57897199425331 12.142112359775641 91.2234021074344 12.578584383764023 90.74298324350211 12.913279521609576C90.27579837114384 13.238586016376203 89.6840142196264 13.404685095527844 88.98461024983725 13.404685095527844Z" fill="white"></path><path d="M120.78314532470704 10.531560555013021C120.78314532470704 11.101870682466947 120.65804664963943 11.603963328826122 120.41034627904648 12.02705154246795C120.157651949369 12.459428520007013 119.83129672319461 12.790128490584937 119.4113047641852 13.039227169721554C118.99480857653496 13.285529231770834 118.5388601121169 13.406083404071515 118.01699138778297 13.406083404071515C117.27339088009566 13.406083404071515 116.68110733266977 13.155686295572917 116.2046836360051 12.638911409505209C115.72151809457634 12.116743047626201 115.48830020532853 11.435267390950521 115.48830020532853 10.555631437800482V3.759552278019832H113.00480435258915V10.595782868840145C113.00480435258915 11.711033811598558 113.22953251139323 12.670972626827924 113.67199728628306 13.447533264473158C114.11645964480668 14.226790640024038 114.7079940983699 14.823868388171073 115.42912179017678 15.220188981119792C116.14175975153998 15.612514406800882 116.90658458533655 15.810674703275241 117.69937559000653 15.810674703275241C118.64548113857172 15.810674703275241 119.44126851869241 15.601727455178285 120.06376551857973 15.190724622521033C120.3192065257537 15.022028684645434 120.55941595771986 14.83595376915565 120.78214653289014 14.633798305413663V15.635286860226362H123.26439389585838V3.759552278019832H120.78214653289014L120.78314532470704 10.531560555013021Z" fill="white"></path><path d="M133.42335516357423 4.794500358698919C133.1561783525516 4.554840262232071 132.85978688088443 4.344644524363982 132.53842561379457 4.165236544252053C131.84526409286107 3.7796279935396635 131.01352020733174 3.5841644349709534 130.06466798127005 3.5841644349709534C128.94951691769333 3.5841644349709534 127.95796634145884 3.8626525633200623 127.11873151730268 4.411588545892178C126.28324216245994 4.957827790558644 125.62578744898087 5.703575700652293 125.16584381729518 6.627383221905048C124.7098953528771 7.544523807779949 124.4784253493089 8.576775150553384 124.4784253493089 9.697369629532252C124.4784253493089 10.80333180839343 124.7098953528771 11.83158798389924 125.16409593161559 12.754072105994593C125.62378986534706 13.687243300530849 126.28124457882612 14.436936438301283 127.11773272548578 14.98327556214944C127.95721724759615 15.532211544721555 128.94951691769333 15.810674703275241 130.06391888740737 15.810674703275241C131.0115226236979 15.810674703275241 131.84426530104417 15.615211144706532 132.53742682197768 15.229577624198718C132.8587880890675 15.050194613882212 133.15517956073467 14.842645674328926 133.42235637175733 14.605632376176883V15.635286860226362H135.90460373472555V3.759552278019832H133.42235637175733L133.42335516357423 4.794500358698919ZM133.12521580622746 7.809603155987079C133.37965802158453 8.3746196868114 133.50950095778245 9.010600376226963 133.50950095778245 9.698767938075921C133.50950095778245 10.373551689578326 133.37965802158453 11.005487272135417 133.12521580622746 11.578494137494992C132.87327057041267 12.142212238957333 132.5172012876853 12.578584383764023 132.036782423753 12.913379400791268C131.57034664525742 13.238685895557893 130.9788121916942 13.404685095527844 130.27865912804236 13.404685095527844C129.5912406600561 13.404685095527844 128.99296436172878 13.237387466195914 128.50205818371896 12.909284354341947C127.99966589981472 12.573290787134415 127.62886443778797 12.135520333784054 127.36368521039915 11.570503802959736C127.0982562850561 11.001492104867788 126.96192120204827 10.372153381034657 126.96192120204827 9.698767938075921C126.96192120204827 9.011898805588944 127.0965083993765 8.37996322303185 127.36268641858224 7.817643430113181C127.62586806233725 7.260667173414964 127.9986671079978 6.8255435183794075 128.50130908985625 6.488151642628206C128.99096677809496 6.158800041003105 129.5894927743765 5.992775871237731 130.27766033622547 5.992775871237731C130.9758158162435 5.992775871237731 131.56934785344052 6.157451672050281 132.03603332989033 6.484131505565155C132.5189491733649 6.81885161320613 132.87426936222957 7.252651869084286 133.12521580622746 7.809603155987079Z" fill="white"></path><path d="M145.6268432804988 4.175948586488381C144.91919927822016 3.7836481306027148 144.1523768607898 3.5841644349709534 143.3448536768204 3.5841644349709534C142.39899782620944 3.5841644349709534 141.60321044608872 3.793036773681641 140.98071344620143 4.204064576134315C140.72502274107322 4.372760514009916 140.485812100924 4.558860399295122 140.26233243189102 4.76101586303711V3.759552278019832H137.77983537096853V15.635286860226362H140.26233243189102V8.865975321138823C140.26233243189102 8.294266885141226 140.38818020082132 7.786855672357021 140.6351314775516 7.357075553541917C140.88682701541217 6.9192801303961335 141.21118465795274 6.589903558975611 141.62842993946563 6.3502434625087645C142.04068126189404 6.111931734994742 142.51036311379457 5.991452472080329 143.02548999336437 5.991452472080329C143.78257419057994 5.991452472080329 144.37785411345655 6.241799640988081 144.84753596535708 6.755927728740986C145.32370996406752 7.279419489777394 145.55517996763572 7.960895146453075 145.55517996763572 8.84187946855594V15.635286860226362H148.03742733060398V8.799031299610627C148.03742733060398 7.683755387056792 147.8129488697541 6.725139970984826 147.3704840948643 5.947255934182191C146.92801931997445 5.169371897379557 146.34122912754157 4.573592578594502 145.6268432804988 4.175948586488381Z" fill="white"></path><path d="M153.17945730199568 3.7595273082244094V0H150.6979590328901V3.7595273082244094H148.53132988406452V6.12394220659305H150.6979590328901V15.636585289588343H153.17945730199568V6.12394220659305H155.6230014820588V3.7595273082244094H153.17945730199568Z" fill="white"></path><path d="M109.66858998616536 13.059203006059695C110.82069634696765 11.674877547826522 111.51885182698568 9.876752639848759 111.51885182698568 7.908658334428836C111.51885182698568 3.5412912962302183 108.08675344613883 0 103.85187614245294 0C99.61724853672126 0 96.18614894769131 3.5412912962302183 96.18614894769131 7.908658334428836C96.18614894769131 12.276050342422877 99.61824732853816 15.817266729266827 103.85187614245294 15.817266729266827C105.2818963263096 15.817266729266827 106.62077675687351 15.411657372420875 107.76714006472857 14.707409262319711L108.66655209585338 15.635186981044672H112.165569528433L109.66858998616536 13.059203006059695ZM98.65591141294821 7.908658334428836C98.65591141294821 4.952459284542769 100.9863424197466 2.5478430155436196 103.85187614245294 2.5478430155436196C106.71765956311349 2.5478430155436196 109.04809056991186 4.952459284542769 109.04809056991186 7.908658334428836C109.04809056991186 9.171206100385618 108.62210586000101 10.332001949994993 107.91246427408855 11.249092596279047L105.96157415771485 9.23682672275641H102.46355551695213L105.93635466433794 12.819592849183696C105.29737759947166 13.108743080178286 104.59272997264374 13.27074711288061 103.85187614245294 13.27074711288061C100.9863424197466 13.27074711288061 98.65591141294821 10.864857384314904 98.65591141294821 7.908658334428836Z" fill="white"></path></svg> 