<?xml version="1.0" encoding="UTF-8"?> <svg xmlns="http://www.w3.org/2000/svg" width="140" height="55" viewBox="0 0 140 55" fill="none"><path d="M23.1665 17.1476C23.3275 9.21704 18.837 2.30678 16.4963 0.64537C16.4854 0.634458 16.2781 0.522607 16.2945 0.83361C16.2945 0.839066 16.289 0.839064 16.289 0.84452C16.0489 15.8245 8.34752 19.8621 4.16808 25.3537C-5.12381 37.5619 2.62943 51.4916 12.6743 54.1296C12.8461 54.1733 13.3099 54.3124 14.1911 54.4925C14.6494 54.588 14.7831 54.1978 14.4475 53.6168C13.2472 51.5298 11.1111 48.0023 10.6882 43.4737C9.7252 32.9569 22.9783 26.3768 23.1665 17.1476Z" fill="#302F2F"></path><path d="M28.2302 22.2273C28.1511 22.1673 28.0392 22.1727 28.0283 22.2764C27.8155 24.1833 25.8431 28.1363 23.2487 31.8302C14.5133 44.2894 18.9138 49.942 22.3293 53.8622C22.9595 54.5879 23.2733 54.4297 23.6061 53.9113C23.9171 53.4203 24.3863 52.7956 26.4051 51.838C26.7188 51.688 34.3466 47.6395 35.1732 38.4212C35.9671 29.5004 30.249 23.8614 28.2302 22.2273Z" fill="#5C5C5C"></path><path d="M73.5953 19.9575V52.7437H66.5622V39.4989H53.0473V52.7437H45.8369V19.9575H53.0473V33.2024H66.5622V19.9575H73.5953Z" fill="#302F2F"></path><path d="M106.111 19.9575V26.4422H102.764H96.0143V52.741H88.7794V26.4422H82.2102H78.8628V19.9575H106.111Z" fill="#302F2F"></path><path fill-rule="evenodd" clip-rule="evenodd" d="M131.723 52.7765L123.457 41.3676L115.254 52.7274L107.233 52.7383L119.392 36.0014L107.915 19.9575H115.93L139.705 52.7765H131.723Z" fill="#302F2F"></path><path d="M125.705 27.2935L129.671 32.8042L139.07 19.9495H131.098L125.705 27.2935Z" fill="#5C5C5C"></path></svg> 