<?xml version="1.0" encoding="UTF-8"?> <svg xmlns="http://www.w3.org/2000/svg" width="267" height="34" viewBox="0 0 267 34" fill="none"><path d="M29.9618 17.5593H35.9147L40.3155 21.9873C42.052 19.7487 43.0889 16.9337 43.0889 13.873C43.0889 6.58074 37.2114 0.666992 29.9618 0.666992C22.712 0.666992 16.8345 6.58074 16.8345 13.8752C16.8345 21.1697 22.712 27.0833 29.9618 27.0833C32.6507 27.0833 35.1486 26.268 37.2292 24.8738L29.9618 17.5593Z" fill="#302F2F"></path><path d="M13.7834 27.0812C6.53372 27.0812 0.65625 21.1697 0.65625 13.8752C0.65625 6.58074 6.53372 0.666992 13.7834 0.666992V27.0812Z" fill="#302F2F"></path><path d="M75.8355 7.42524L76.2796 7.79834V2.60623L76.1443 2.52803C74.0348 1.29254 71.8143 0.666992 69.5495 0.666992C65.4017 0.666992 61.9757 2.23536 59.36 5.32963C57.2395 7.85421 56.1626 10.7675 56.1626 13.9936C56.1626 17.5928 57.4505 20.7095 59.9883 23.2563C62.5374 25.7808 65.6548 27.061 69.2586 27.061C71.6523 27.061 73.9682 26.4355 76.1419 25.2023L76.2796 25.124V19.8493L75.8333 20.2268C75.236 20.7318 74.6564 21.1718 74.1148 21.5315C73.5774 21.889 73.0489 22.175 72.5471 22.385C71.6679 22.7962 70.5776 23.0038 69.3075 23.0038C66.845 23.0038 64.7357 22.1237 63.0392 20.39C61.3406 18.654 60.4813 16.4913 60.4813 13.9623C60.4813 11.402 61.3428 9.20586 63.0415 7.43643C64.7267 5.66028 66.8294 4.75993 69.2897 4.75993C71.5279 4.75993 73.7306 5.65581 75.8355 7.42524Z" fill="#302F2F"></path><path d="M88.0012 6.70996C87.1841 6.79486 86.4425 6.98476 85.7919 7.28636C84.9015 7.70191 84.1488 8.21353 83.5558 8.81005C83.3827 8.98431 83.2229 9.15856 83.0718 9.33283V6.94008H78.8242V26.7568H83.0718V17.9476C83.0718 16.7189 83.3117 15.5504 83.7869 14.4736C84.2532 13.4168 84.9304 12.5455 85.803 11.8864C86.4447 11.3994 87.1707 11.109 87.9989 10.9928V6.70996H88.0012Z" fill="#302F2F"></path><path d="M99.3366 20.6244L93.9965 6.94043H89.3247L97.0495 25.7273L93.3992 34.0003H98.0154L109.422 6.94043H104.777L99.3366 20.6244Z" fill="#302F2F"></path><path d="M125.78 8.02816C124.341 7.11216 122.644 6.64746 120.739 6.64746C119.121 6.64746 117.697 6.96694 116.514 7.59473C115.961 7.88741 115.453 8.23593 114.993 8.63361V6.94013H110.745V34H114.993V25.0098C115.45 25.4053 115.952 25.756 116.501 26.0598C117.686 26.7166 119.112 27.0518 120.739 27.0518C122.644 27.0518 124.341 26.5871 125.78 25.6711C127.212 24.7596 128.335 23.5063 129.122 21.9513C129.899 20.4098 130.294 18.694 130.294 16.8508C130.294 14.9808 129.899 13.2583 129.119 11.7279C128.333 10.1841 127.21 8.93968 125.78 8.02816ZM126.048 16.8508C126.048 17.9723 125.817 19.0223 125.36 19.9741C124.907 20.917 124.274 21.6475 123.426 22.2105C122.6 22.7578 121.574 23.0348 120.373 23.0348C119.183 23.0348 118.201 22.7668 117.378 22.2126C116.545 21.6541 115.932 20.9258 115.501 19.9875C115.066 19.0335 114.844 17.979 114.844 16.8508C114.844 15.7001 115.064 14.6412 115.499 13.6984C115.928 12.7712 116.543 12.0496 117.375 11.4888C118.19 10.9437 119.196 10.6667 120.371 10.6667C121.57 10.6667 122.598 10.9437 123.424 11.4911C124.272 12.0541 124.905 12.7802 125.358 13.7118C125.817 14.6501 126.048 15.7068 126.048 16.8508Z" fill="#302F2F"></path><path d="M142.762 6.94044H138.581V0.666992H134.335V6.94044H130.627V10.8859H134.335V26.7595H138.581V10.8859H142.762V6.94044Z" fill="#302F2F"></path><path d="M158.12 8.02614C156.659 7.11237 154.903 6.6499 152.902 6.6499C150.926 6.6499 149.176 7.11237 147.707 8.02614C146.234 8.93765 145.091 10.1843 144.303 11.7303C143.523 13.2607 143.128 14.9832 143.128 16.8533C143.128 18.6986 143.523 20.4144 144.3 21.9538C145.089 23.5131 146.234 24.7664 147.707 25.6781C149.179 26.5918 150.926 27.0543 152.902 27.0543C154.903 27.0543 156.659 26.5918 158.12 25.6781C159.579 24.7664 160.718 23.5131 161.504 21.9559C162.281 20.4144 162.677 18.6986 162.677 16.8554C162.677 14.9855 162.281 13.263 161.502 11.7326C160.716 10.1821 159.577 8.93765 158.12 8.02614ZM152.902 23.0351C151.728 23.0351 150.72 22.7579 149.907 22.2129C149.072 21.6544 148.459 20.9261 148.031 19.9878C147.596 19.0359 147.373 17.9793 147.373 16.8509C147.373 15.7004 147.593 14.6392 148.031 13.6986C148.459 12.7714 149.072 12.0498 149.907 11.489C150.72 10.9439 151.728 10.6669 152.902 10.6669C154.097 10.6669 155.112 10.9417 155.911 11.4868C156.735 12.0476 157.343 12.7714 157.774 13.6986C158.209 14.6392 158.429 15.7004 158.429 16.8509C158.429 17.9769 158.207 19.0338 157.772 19.9878C157.341 20.9283 156.733 21.6566 155.911 22.2151C155.112 22.7579 154.099 23.0351 152.902 23.0351Z" fill="#302F2F"></path><path d="M207.307 18.2408C207.307 19.1924 207.094 20.0303 206.67 20.7363C206.237 21.4578 205.679 22.0096 204.96 22.4253C204.248 22.8363 203.468 23.0374 202.575 23.0374C201.303 23.0374 200.289 22.6196 199.474 21.7573C198.647 20.8859 198.248 19.7488 198.248 18.2809V6.94043H194V18.3479C194 20.2089 194.384 21.8108 195.141 23.1066C195.901 24.4069 196.913 25.4033 198.147 26.0646C199.366 26.7193 200.675 27.0499 202.032 27.0499C203.65 27.0499 205.012 26.7013 206.077 26.0154C206.514 25.7339 206.925 25.4234 207.306 25.0861V26.7573H211.553V6.94043H207.306L207.307 18.2408Z" fill="#302F2F"></path><path d="M228.934 8.66713C228.477 8.26721 227.97 7.91644 227.42 7.61708C226.234 6.97364 224.811 6.64746 223.188 6.64746C221.279 6.64746 219.583 7.11216 218.147 8.02816C216.717 8.93968 215.593 10.1841 214.806 11.7256C214.026 13.256 213.63 14.9785 213.63 16.8485C213.63 18.694 214.026 20.4098 214.803 21.9491C215.589 23.5063 216.714 24.7573 218.145 25.669C219.581 26.585 221.279 27.0496 223.186 27.0496C224.808 27.0496 226.232 26.7235 227.418 26.08C227.968 25.7806 228.475 25.4343 228.932 25.0388V26.757H233.179V6.94013H228.932L228.934 8.66713ZM228.424 13.6984C228.859 14.6412 229.081 15.7025 229.081 16.8508C229.081 17.9768 228.859 19.0313 228.424 19.9875C227.993 20.9281 227.383 21.6563 226.562 22.215C225.763 22.7578 224.751 23.0348 223.554 23.0348C222.378 23.0348 221.354 22.7556 220.514 22.2081C219.654 21.6475 219.02 20.917 218.566 19.9741C218.112 19.0246 217.879 17.9745 217.879 16.8508C217.879 15.7046 218.109 14.6501 218.564 13.7118C219.015 12.7824 219.653 12.0563 220.512 11.4933C221.351 10.9437 222.374 10.6667 223.552 10.6667C224.746 10.6667 225.762 10.9415 226.56 11.4866C227.387 12.0451 227.995 12.769 228.424 13.6984Z" fill="#302F2F"></path><path d="M249.814 7.63494C248.603 6.98034 247.291 6.64746 245.909 6.64746C244.291 6.64746 242.929 6.99599 241.864 7.68186C241.427 7.96336 241.018 8.27391 240.635 8.61126V6.94013H236.388V26.757H240.635V15.4611C240.635 14.5071 240.851 13.6604 241.273 12.9433C241.704 12.2127 242.259 11.6631 242.973 11.2632C243.678 10.8655 244.482 10.6644 245.363 10.6644C246.658 10.6644 247.677 11.0822 248.48 11.9401C249.295 12.8137 249.691 13.9508 249.691 15.4209V26.757H253.938V15.3494C253.938 13.4884 253.554 11.8887 252.797 10.5907C252.04 9.29268 251.036 8.29849 249.814 7.63494Z" fill="#302F2F"></path><path d="M262.735 6.94044V0.666992H258.49V6.94044H254.783V10.8859H258.49V26.7595H262.735V10.8859H266.916V6.94044H262.735Z" fill="#302F2F"></path><path d="M188.292 22.4587C190.263 20.1487 191.457 17.1482 191.457 13.864C191.457 6.57627 185.585 0.666992 178.34 0.666992C171.095 0.666992 165.224 6.57627 165.224 13.864C165.224 21.1518 171.096 27.061 178.34 27.061C180.786 27.061 183.077 26.3842 185.038 25.209L186.577 26.7572H192.564L188.292 22.4587ZM169.45 13.864C169.45 8.93106 173.437 4.91854 178.34 4.91854C183.243 4.91854 187.23 8.93106 187.23 13.864C187.23 15.9708 186.501 17.9078 185.287 19.4382L181.949 16.0803H175.964L181.906 22.0588C180.813 22.5413 179.607 22.8117 178.34 22.8117C173.437 22.8117 169.45 18.797 169.45 13.864Z" fill="#302F2F"></path></svg> 