<?xml version="1.0" encoding="UTF-8"?> <svg xmlns="http://www.w3.org/2000/svg" width="260" height="54" viewBox="0 0 260 54" fill="none"><path d="M11.8182 26.9999L5.96138 32.8567L0 26.9999L5.96138 21.0386L11.8182 26.9999ZM26.1464 12.6717L36.2912 22.8165L42.2526 16.8551L26.1464 0.853516L10.1448 16.8551L16.1062 22.8165L26.1464 12.6717ZM46.3315 21.0386L40.4747 26.9999L46.436 32.9613L52.2928 26.9999L46.3315 21.0386ZM26.1464 41.3282L16.0016 31.1834L10.0402 37.1447L26.1464 53.1464L42.148 37.1447L36.2912 31.1834L26.1464 41.3282ZM26.1464 32.8567L32.1078 26.8954L26.1464 21.0386L20.185 26.9999L26.1464 32.8567ZM88.4795 33.4842C88.4795 29.51 86.3878 27.6275 83.1456 26.3724C85.2373 25.222 86.9107 23.444 86.9107 20.2019V20.0973C86.9107 15.6001 83.2502 12.6717 77.498 12.6717H64.111V41.3282H77.7072C84.1915 41.3282 88.4795 38.7135 88.4795 33.4842ZM80.531 21.2477C80.531 23.444 78.753 24.2807 76.0338 24.2807H70.177V18.2147H76.4521C79.0668 18.2147 80.531 19.2606 80.531 21.2477ZM82.2043 32.6476C82.2043 34.7393 80.531 35.7851 77.8117 35.7851H70.2816V29.51H77.6026C80.7401 29.51 82.2043 30.6604 82.2043 32.6476ZM101.657 41.3282V12.6717H95.2775V41.3282H101.657ZM135.543 41.3282V12.6717H129.268V30.3467L115.881 12.6717H110.024V41.3282H116.299V23.1303L130.209 41.3282H135.543ZM170.475 41.3282L158.134 12.4625H152.277L139.936 41.3282H146.42L149.035 34.8439H161.167L163.781 41.3282H170.475ZM158.97 29.3008H151.335L155.205 19.9927L158.97 29.3008ZM200.595 41.3282V12.6717H194.32V30.3467L180.933 12.6717H175.076V41.3282H181.352V23.1303L195.261 41.3282H200.595ZM233.121 36.7264L229.043 32.6476C226.742 34.7393 224.755 35.9943 221.512 35.9943C216.597 35.9943 213.146 31.9155 213.146 26.9999V26.8954C213.146 21.9798 216.597 18.0056 221.512 18.0056C224.336 18.0056 226.637 19.2606 228.833 21.2477L232.912 16.646C230.298 14.0313 227.055 12.2534 221.617 12.2534C212.832 12.2534 206.661 18.9468 206.661 27.1045V26.9999C206.661 35.2622 212.936 41.7465 221.408 41.7465C226.846 41.8511 230.193 39.864 233.121 36.7264ZM260 41.3282V35.6805H244.417V29.6146H257.908V23.967H244.417V18.1102H259.791V12.4625H238.142V41.119L260 41.3282Z" fill="#302F2F"></path></svg> 